<?xml version="1.0" encoding="UTF-8" standalone="no"?>
<!-- Created with Inkscape (http://www.inkscape.org/) -->
<svg id="header-logo" class="logo" xmlns:rdf="http://www.w3.org/1999/02/22-rdf-syntax-ns#" xmlns="http://www.w3.org/2000/svg" height="62.783mm" width="290.16mm" version="1.1" xmlns:cc="http://creativecommons.org/ns#" xmlns:dc="http://purl.org/dc/elements/1.1/" viewBox="0 0 1028.125 222.46092">
 <metadata id="metadata7">
  <rdf:RDF>
   <cc:Work rdf:about="">
    <dc:format>image/svg+xml</dc:format>
    <dc:type rdf:resource="http://purl.org/dc/dcmitype/StillImage"/>
    <dc:title/>
   </cc:Work>
  </rdf:RDF>
 </metadata>
 <g class="layer1" transform="translate(-29.475 -422.46)">
  <g id="flowRoot4136" transform="translate(0 343.7)">
   <path id="path4145" d="m70.1 160.21q1.3672 8.7891 3.125 16.211 1.9531 7.2266 2.9297 12.695 0.97656 5.4688 0.58594 8.7891t-3.9062 4.1016q-0.39062 1.1719-1.5625-1.3672t-2.7344-7.6172q-1.5625-5.2734-3.3203-12.5t-3.5156-15.234q-1.5625-8.2031-2.9297-16.797-1.3672-8.5937-2.3437-16.406-0.78125-7.8125-0.78125-14.258 0-6.4453 1.1719-10.742 2.3437-1.7578 4.1016-0.78125 1.9531 0.78125 2.9297 2.7344 1.1719 1.9531 1.5625 4.4922 0 2.5391-0.39062 4.6875 0.19531 0.78125 0.58594 2.9297 0.58594 2.1484 1.1719 4.6875 0.58594 2.3438 1.1719 4.4922 0.58594 2.1484 0.97656 2.9297 2.7344-0.39062 8.0078-0.97656 5.4687-0.78125 11.719-1.9531 6.25-1.3672 12.695-3.125 6.6406-1.7578 11.914-4.1016t8.5938-5.4688q3.5156-3.125 3.5156-7.0312 0-0.39063-0.19531-0.97657v-0.58593q-5.4688-6.25-11.133-10.156-5.6641-3.9062-12.109-5.6641-6.25-1.9531-13.281-2.5391-7.0312-0.58594-15.039-0.58594-5.8594 0-12.305 0.19531-6.4453 0-11.914 1.5625-5.2734 1.5625-8.7891 5.6641-3.5156 4.1016-3.5156 11.914-1.7578 0-3.125-1.1719t-2.3437-2.7344q-0.97656-1.7578-1.5625-3.5156-0.58594-1.9531-0.58594-3.3203 0-2.7344 1.1719-5.0781 1.1719-2.5391 3.125-4.4922t4.2969-3.5156q2.3438-1.7578 4.6875-2.9297 6.25-1.1719 10.937-1.9531 4.8828-0.78125 9.1797-1.1719 4.2969-0.58594 8.5937-0.58594 4.4922-0.19531 9.9609-0.19531t11.523 0.97656q6.0547 0.78125 12.305 2.5391 6.25 1.7578 11.719 4.6875 5.6641 2.7344 9.9609 6.8359 4.4922 3.9062 7.0312 9.1797 2.5391 5.0781 2.5391 11.523 0 5.6641-3.5156 9.9609-3.5156 4.2969-9.375 7.4219t-13.086 5.2734q-7.0312 2.1484-14.258 3.9062-7.0312 1.5625-13.281 2.7344-6.25 1.5625-10.156 2.7344 9.7656 13.477 19.336 22.852 9.5703 9.375 17.969 15.82 8.3984 6.4453 15.234 10.547 6.8359 3.9062 11.133 6.6406 4.2969 2.7344 5.4688 4.2969t-1.7578 3.5156q-2.1484 2.7344-7.0312 1.3672t-11.328-5.4688q-6.25-3.9062-13.477-9.7656-7.2266-6.0547-14.258-12.5-7.0312-6.4453-13.477-12.695-6.25-6.25-10.547-10.938z"/>
   <path id="path4147" d="m156.43 264.5q0-1.3672 0-2.7344 0-1.1719 0.39062-2.1484 0.39063-0.78125 1.1719-1.3672 1.1719-0.39062 2.7344-0.39062 2.9297 3.3203 7.4219 8.3984 4.6875 5.2734 10.547 10.156 5.8594 4.8828 12.305 8.5938 6.4453 3.7109 13.086 3.7109 5.4688-0.19531 9.375-2.9297 3.9062-2.5391 6.6406-6.8359 2.7344-4.2969 4.4922-9.7656 1.7578-5.4688 2.7344-11.133 1.1719-5.6641 1.5625-10.938 0.58594-5.2734 1.1719-9.1797 0.39062-1.9531 0.78125-6.6406 0.58594-4.4922 0.97656-10.156 0.58594-5.4688 0.78125-11.523 0.39063-6.0547 0-10.938-0.39062-5.0781-1.5625-8.2031-1.1719-3.3203-3.5156-3.3203-3.3203 0-7.0312 1.9531t-7.8125 4.4922q-3.9062 2.3437-8.0078 4.2969-4.1016 1.9531-8.0078 1.9531-7.4219 0-13.672-2.9297-6.0547-3.125-11.133-8.0078-5.0781-4.8828-8.9844-11.328-3.9062-6.6406-6.6406-13.672-2.5391-7.0312-3.9062-14.062-1.1719-7.0312-1.1719-13.281 0-1.3672-0.39062-4.4922-0.19532-3.125 0.19531-6.4453 0.39062-3.3203 1.7578-5.8594t4.2969-2.5391q0.78125 0 1.1719 3.125 0.58594 3.125 1.1719 8.2031 0.78125 4.8828 1.7578 11.328 1.1719 6.4453 2.9297 13.086 1.7578 6.6406 4.2969 13.086 2.5391 6.4453 6.25 11.523 3.7109 4.8828 8.7891 8.0078 5.2734 3.125 11.914 3.125 4.2969 0 8.9844-1.7578 4.6875-1.9531 8.7891-4.8828 4.2969-2.9297 7.8125-6.6406 3.5156-3.9062 5.4688-7.6172 0-0.78125-0.19531-3.7109-0.19531-2.9297-0.39063-6.6406-0.19531-3.9062-0.39062-8.3984t-0.39063-8.3984q-0.19531-4.1016-0.39062-7.0312 0-2.9297 0-3.7109 0.39062-11.914 1.7578-14.453 1.3672-2.7344 3.3203 1.5625t4.1016 14.453q2.1484 10.156 3.9062 23.828 1.9531 13.477 2.9297 29.492 1.1719 16.016 0.97656 32.031-0.19531 16.211-2.1484 31.25-1.7578 15.039-5.8594 26.562-4.1016 11.719-10.742 18.945-6.6406 7.2266-16.406 7.6172-3.9062 0-9.375-1.5625-5.2734-1.3672-10.742-3.9062-5.4688-2.5391-10.938-6.0547-5.2734-3.5156-9.5703-7.6172-4.1016-4.1016-6.8359-8.5937-2.5391-4.4922-2.5391-8.9844z"/>
   <path id="path4149" d="m248.81 170.56q0.19531-3.3203 1.9531-7.6172t5.4688-8.3984q3.7109-4.1016 9.375-7.2266 5.6641-3.3203 13.281-4.6875 7.8125-1.3672 17.578-0.19531 9.9609 1.1719 22.07 5.8594 0-0.19531 0-1.9531l-0.19531-1.7578q0-5.0781-2.9297-10.352-2.9297-5.2734-7.6172-9.375-4.4922-4.2969-9.7656-6.8359-5.2734-2.7344-10.156-2.7344-1.9531 0-3.5156 0.58594-1.3672 0.58594-2.7344 1.5625-1.3672 0.78125-2.7344 1.5625-1.1719 0.58594-2.9297 0.58594-0.39063 0-0.39063-0.19531-0.19531-0.19532-0.39062-0.39063-0.39063-0.39062-1.1719-0.97656-0.58593-0.58594-0.58593-0.78125 0-3.5156 1.1719-6.0547 1.3672-2.5391 3.5156-4.1016 2.3438-1.5625 5.0781-2.3438 2.9297-0.97656 6.0547-0.97656 7.8125 0.78125 14.844 4.8828 7.2266 3.9062 13.086 9.9609 6.0547 6.0547 10.547 14.062 4.4922 7.8125 7.4219 16.406 3.125 8.3984 4.1016 16.992 1.1719 8.9844 0.19531 16.797-0.19531 0-1.1719 0-0.97657-0.19531-2.1484-0.19531-1.1719-0.19532-1.9531-0.39063l-0.97657-0.19531q-4.1016-9.1797-9.1797-14.844-5.0781-5.6641-10.156-8.7891-4.8828-3.3203-9.1797-4.4922-4.2969-1.3672-7.0312-1.9531-2.9297 0-7.0312 0.39062-3.9062 0.39063-8.2031 1.3672-4.2969 0.97656-8.7891 2.7344-4.2969 1.5625-7.8125 3.9062-3.3203 2.3437-5.4688 5.6641-1.9531 3.125-1.9531 7.4219 0 4.6875 3.7109 8.0078 3.7109 3.125 8.9844 5.2734 5.2734 1.9531 10.742 2.7344 5.4688 0.78125 8.7891 0.78125 5.4688 0 10.742-0.58593 5.2734-0.58594 10.352-1.3672 5.2734-0.78125 10.352-1.3672 5.0781-0.58594 10.156-0.58594 0.39063 0 1.3672 0 0.97656 0 1.9531 0.19532 1.1719 0 1.9531 0 0.97656 0 1.3672 0 1.5625 0.58593 1.7578 1.7578 0.19531 1.1719 0.19531 2.3438t-2.5391 2.5391q-2.3438 1.3672-6.25 2.7344t-8.7891 2.9297q-4.6875 1.3672-9.1797 2.3438-4.2969 0.97656-8.2031 1.7578-3.7109 0.58594-5.2734 0.58594-8.2031 0-17.383-1.3672-9.1797-1.3672-16.797-4.8828-7.6172-3.7109-12.695-10.156-4.8828-6.4453-4.8828-16.602z"/>
   <path id="path4151" d="m351.94 127.39q0-1.7578 1.1719-2.1484 1.3672-0.58594 2.9297-0.58594 1.1719 0 1.5625 0.58594 0.58593 0.58594 0.78125 1.3672 0.19531 0.78125 0.58593 1.5625 0.39063 0.58594 1.3672 0.58594 2.7344 0 6.6406-2.1484t8.3984-4.6875q4.6875-2.5391 9.7656-4.6875 5.2734-2.1484 10.352-2.1484 6.6406 0 12.109 3.5156 5.6641 3.3203 9.9609 8.9844 4.4922 5.6641 7.6172 12.695 3.125 7.0312 5.2734 14.453 2.1484 7.2266 3.125 14.258 0.97656 6.8359 0.97656 11.914 0 1.7578-0.39063 5.2734-0.19531 3.5156-0.97656 7.0312-0.58593 3.5156-2.1484 6.25-1.5625 2.5391-3.9062 2.5391-0.39063 0-1.3672 0-0.97656-0.19531-1.9531-0.39062-0.97656-0.39063-1.7578-0.78125-0.58594-0.39063-0.58594-1.1719 1.7578-15.039 0-28.125-1.7578-13.281-5.6641-23.242-3.9062-9.9609-9.5703-15.82-5.6641-5.8594-12.109-5.8594-6.0547 0-11.328 1.9531-5.2734 1.9531-9.1797 5.6641-3.9062 3.7109-6.25 8.9844-2.1484 5.2734-2.1484 11.523 0 6.25 1.1719 12.5 1.1719 6.0547 2.5391 12.305 1.5625 6.0547 2.7344 12.305 1.1719 6.25 1.1719 12.5-5.4688 0-9.1797-4.4922t-6.0547-11.523q-2.1484-7.0312-3.5156-15.82-1.1719-8.7891-1.7578-17.188-0.39063-8.5938-0.39063-16.016 0-7.6172 0-11.914z"/>
   <path id="path4153" d="m601.74 199.66q-0.39063-1.9531-0.78125-6.25t-0.97656-9.5703-1.1719-11.133q-0.58593-6.0547-1.1719-11.328-0.58594-5.4688-1.1719-9.5703-0.39062-4.2969-0.58593-6.4453-0.39063-1.9531-0.39063-4.8828 0.19531-2.9297-0.39062-6.0547-0.39063-3.125-1.5625-5.8594-0.97657-2.7344-3.125-3.9062-7.0312 3.9062-14.062 5.8594-7.0312 1.9531-14.844 1.9531-11.523 0-23.047-14.062-0.78125 0-1.1719 1.1719-0.19531 1.1719-0.39062 2.7344t-0.19531 3.3203q0.19531 1.7578 0.19531 2.9297l-0.19531 65.234q0 1.1719-0.78125 2.1484-0.58594 0.78125-1.5625 1.1719-0.97656 0.39062-2.1484 0.78125-0.97656 0.19531-1.9531 0.19531-3.125 0-4.2969-2.5391-0.97656-2.7344-1.3672-5.2734v-28.125q0-12.891 0.97657-25.391 1.1719-12.5 1.1719-25.391 0-3.9062-1.5625-7.0312t-3.3203-6.0547q-1.7578-3.125-3.3203-6.0547-1.3672-3.125-1.3672-6.8359 0-4.1016 3.9062-4.1016 4.8828 0 8.2031 2.9297t5.8594 7.0312q2.5391 4.1016 4.8828 9.1797 2.3438 5.0781 5.4688 9.1797 3.3203 4.1016 7.4219 7.0312 4.2969 2.9297 10.547 2.9297 7.8125 0.39062 12.891-2.3438 5.2734-2.9297 8.3984-7.2266 3.3203-4.4922 5.2734-9.5703 2.1484-5.2734 3.7109-9.5703 1.5625-4.4922 3.3203-7.2266 1.9531-2.7344 4.6875-2.1484 2.1484-0.39062 3.125 0.97656 1.1719 1.3672 1.7578 3.5156 0.58594 1.9531 0.58594 3.9062 0.19531 1.9531 0.19531 2.7344 0 7.4219-1.1719 14.258-0.97657 6.6406-0.97657 14.258 0 9.9609 1.3672 19.727 1.3672 9.7656 3.125 19.727 1.9531 9.7656 3.3203 19.531 1.5625 9.7656 1.5625 19.531 0 1.5625-0.39062 2.5391-0.39063 0.97657-1.1719 1.3672-0.78125 0.39063-1.7578 0.39063-0.97656 0-2.1484 0-2.5391 0-4.6875-0.58594-1.9531-0.58594-2.7344-3.7109z"/>
   <path id="path4155" d="m629.28 184.81q0-1.5625 1.1719-4.6875 1.3672-3.125 3.125-6.25 1.7578-3.3203 3.5156-5.6641 1.9531-2.3438 3.3203-2.3438 3.9062 0 6.8359 2.1484 2.9297 1.9531 4.6875 5.0781 1.9531 3.125 2.9297 6.8359 0.97656 3.7109 0.97656 6.8359 0 2.3438-1.3672 5.2734-1.3672 2.9297-3.5156 5.4687-1.9531 2.5391-4.4922 4.2969t-5.0781 1.7578q-2.9297 0-5.0781-1.9531-2.1484-2.1484-3.9062-5.0781-1.5625-3.125-2.3438-6.25-0.78125-3.3203-0.78125-5.4688z"/>
   <path id="path4157" d="m796.66 203.56q-2.7344-4.8828-4.6875-12.5-1.7578-7.8125-3.125-16.211-1.1719-8.3984-1.9531-15.82-0.78125-7.4219-1.5625-11.719v-33.594q0-2.1484 1.7578-3.9062 1.7578-1.9531 3.9062-1.9531 0.39062 0 0.97656 0t0.78125 0q0.78125 5.2734 1.1719 10.938 0.39063 5.4688 0.58594 10.938 0.39063 5.4688 1.3672 10.938 0.78125 5.4687 2.5391 10.547 3.125 0.78125 6.8359 1.1719 3.5156 0 8.2031 0.39063 5.0781 0 10.938-1.5625 6.0547-1.7578 11.133-4.8828 5.0781-3.125 8.3984-7.6172 3.5156-4.6875 3.5156-10.352 0-6.25-4.1016-10.938-4.1016-4.8828-10.547-8.5938-6.4453-3.7109-14.258-6.4453-7.8125-2.7344-15.43-4.2969-7.4219-1.7578-13.867-2.5391-6.4453-0.78125-9.9609-0.78125-1.1719 0-4.2969-0.19531t-7.0312 0q-3.7109 0-7.2266 0.39062-3.5156 0.39062-5.4688 1.5625-1.7578 0.97656-3.3203 3.5156-1.3672 2.5391-2.7344 5.2734-1.3672 2.5391-2.9297 4.4922-1.3672 1.9531-3.125 1.9531h-0.39062q-0.19532 0-0.58594-0.19531-0.39063-0.19531-0.58594-0.58594-0.19531-0.39062-0.58594-1.9531-0.19531-1.5625-0.39062-4.4922t-0.19531-8.0078q0-2.1484 1.9531-3.9062 2.1484-1.9531 5.4688-3.3203 3.5156-1.3672 7.4219-2.3438 3.9062-1.1719 7.4219-1.7578 3.7109-0.78125 6.4453-1.1719 2.9297-0.39062 3.9062-0.39062 6.6406 0 15.43 0.78125 8.9844 0.78125 18.359 2.9297 9.5703 1.9531 18.75 5.4688 9.375 3.3203 16.602 8.3984 7.2266 4.8828 11.914 11.914 4.4922 6.8359 4.4922 16.211 0.97656 6.6406-2.3438 12.305-3.3203 5.4688-9.1797 9.9609-5.6641 4.2969-12.891 7.6172-7.2266 3.125-14.062 5.0781-6.8359 1.7578-12.305 2.3438-5.4688 0.39063-7.6172-0.58593v1.7578q0 6.8359 1.1719 13.477 1.1719 6.6406 1.1719 13.477 0 0.78125-0.19531 2.5391-0.19531 1.5625-0.97656 3.125-0.58594 1.5625-1.7578 2.5391-0.97657 0.97657-2.9297 0.58594z"/>
   <path id="path4159" d="m866 163.72q0-10.742 4.6875-18.75 4.6875-8.0078 12.305-13.477 7.6172-5.4688 16.992-8.0078 9.5703-2.7344 19.141-2.7344 5.0781 0 9.375 1.9531 4.4922 1.7578 8.3984 5.0781 4.1016 3.125 7.2266 7.4219 3.125 4.1016 5.2734 8.5938 2.3438 4.4922 3.5156 9.1797 1.1719 4.4922 1.1719 8.7891 0 9.9609-3.9062 17.773-3.9062 7.8125-10.547 13.281-6.6406 5.2734-15.039 8.2031-8.3984 2.7344-17.188 2.7344-8.9844 0-16.602-2.7344-7.4219-2.9297-13.086-8.0078-5.4688-5.0781-8.5938-12.5-3.125-7.6172-3.125-16.797zm9.5703-1.5625q0 6.0547 2.1484 11.719 2.3438 5.4687 6.25 9.5703 4.1016 4.1016 9.5703 6.6406 5.4688 2.3438 11.719 2.3438 3.3203 0.39063 8.0078-0.97656 4.8828-1.5625 9.5703-4.2969 4.8828-2.9297 9.1797-6.8359 4.4922-4.1016 7.4219-8.7891 2.9297-4.8828 3.5156-9.9609 0.78125-5.2734-1.7578-10.352-2.3438-5.2734-8.7891-9.9609-6.4453-4.8828-17.773-8.9844-6.4453 0-13.477 1.9531-6.8359 1.7578-12.5 5.4688-5.6641 3.7109-9.375 9.375t-3.7109 13.086z"/>
   <path id="path4161" d="m963.65 151.22q0-10.156 2.9297-19.336 3.125-9.375 8.7891-16.406 5.8594-7.0312 14.062-11.133 8.3984-4.2969 19.336-4.2969 6.4453 0.78125 11.133 3.5156 4.8828 2.7344 7.8125 6.8359 3.125 3.9062 4.4922 9.1797 1.1718 5.0781 1.1718 10.938 0 7.0312-4.1015 12.695-4.1016 5.6641-10.352 9.5703-6.25 3.7109-13.477 5.8594-7.2265 1.9531-13.477 1.9531-2.3438 0-4.8828 0-2.3438 0-4.2969-0.78125t-3.125-2.3438q-1.1719-1.5625-1.1719-4.6875 0-0.97656 0.19531-1.5625 0.39063-0.78125 1.7578-0.97656 1.3672-0.39063 4.1016-0.19532 2.7344 0.39063 7.4219 1.1719 2.7344 0 7.8125-1.7578 5.2734-1.9531 10.547-4.8828 5.4687-2.9297 9.375-6.6406 3.9062-3.9062 3.9062-7.6172 0-3.9062-1.3672-7.6172-1.1719-3.9062-3.7109-6.8359-2.5391-2.9297-6.0547-4.6875-3.3203-1.7578-7.6172-1.3672-6.8359 0.58593-12.5 3.7109-5.4688 3.125-9.375 8.2031-3.9062 4.8828-6.0547 10.937-2.1484 6.0547-2.1484 12.695 0 5.0781 0.19531 10.156 0.19531 5.0781 1.3672 9.9609 1.3672 4.8828 4.1016 9.375 2.9297 4.4922 8.2031 8.0078 5.4688 3.3203 13.672 5.6641 8.2032 2.1484 20.312 2.7344l34.961-2.3438q-3.125 4.2969-8.0078 7.0312-4.6875 2.7344-10.156 4.4922-5.2734 1.5625-10.547 2.3438-5.2734 0.78125-9.9609 0.78125-11.328 0-21.289-3.7109-9.9609-3.7109-17.578-10.352-7.6172-6.8359-12.109-16.406-4.2969-9.7656-4.2969-21.875z"/>
  </g>
 </g>
</svg>
