<?xml version="1.0" encoding="UTF-8" standalone="no"?>
<!-- Created with Inkscape (http://www.inkscape.org/) -->
<svg id="svg4147" xmlns:rdf="http://www.w3.org/1999/02/22-rdf-syntax-ns#" xmlns="http://www.w3.org/2000/svg" height="89.953mm" width="249.55mm" version="1.1" xmlns:cc="http://creativecommons.org/ns#" xmlns:dc="http://purl.org/dc/elements/1.1/" viewBox="0 0 884.24326 318.73079">
 <metadata id="metadata4152">
  <rdf:RDF>
   <cc:Work rdf:about="">
    <dc:format>image/svg+xml</dc:format>
    <dc:type rdf:resource="http://purl.org/dc/dcmitype/StillImage"/>
    <dc:title/>
   </cc:Work>
  </rdf:RDF>
 </metadata>
 <g id="layer1" transform="translate(-197.81 -432.81)">
  <g id="text4695">
   <path id="path4715" d="m197.81 746.65v-104.98h29.664q8.64 0 15.696 2.304 7.2 2.304 12.096 6.624 5.04 4.32 7.776 10.656t2.736 14.256q0 4.32-0.864 8.64t-2.736 8.352-4.896 7.488q-3.024 3.312-7.2 5.76 3.168 5.04 6.192 9.936 3.024 4.752 6.048 9.648 3.168 4.896 6.48 10.08t7.2 11.232h-21.168q-6.48-10.08-12.24-19.008-5.76-9.072-11.088-17.136h-1.44-14.688v36.144h-17.568zm17.568-52.704h14.112q5.472 0 9.072-1.872t5.76-4.464q2.16-2.736 3.024-5.76 0.864-3.168 0.864-5.76 0-2.448-0.864-5.472-0.72-3.168-2.88-5.904-2.016-2.736-5.616-4.608t-9.216-1.872h-14.256v35.712z"/>
   <path id="path4717" d="m328.24 712.66v33.984h-17.712v-33.984q-0.72-1.008-3.6-6.336-2.88-5.472-7.056-12.96-4.176-7.632-8.784-16.128-4.608-8.64-8.784-16.128-4.176-7.632-7.056-12.96-2.88-5.472-3.6-6.48h20.016q0.576 1.008 2.16 4.176 1.728 3.024 4.032 7.488 2.304 4.32 5.04 9.648 2.736 5.184 5.472 10.512 2.736 5.184 5.184 10.08 2.448 4.752 4.32 8.352l1.584 4.896q0.576-1.152 1.008-2.448 0.432-1.44 0.864-2.448 1.872-3.6 4.32-8.352 2.448-4.896 5.04-10.08 2.736-5.328 5.328-10.512 2.736-5.328 4.896-9.648 2.304-4.464 3.888-7.488 1.584-3.168 2.16-4.176h20.016l-38.736 70.992z"/>
   <path id="path4719" d="m433.6 746.65q-0.432-1.008-1.584-3.6-1.008-2.592-2.592-6.336t-3.456-8.208q-1.872-4.608-3.888-9.504h-36.144l-11.52 27.648h-17.424q0.576-1.296 2.736-6.336 2.16-5.184 5.328-12.672 3.312-7.632 7.2-16.848 4.032-9.36 8.208-19.008t8.064-18.864q4.032-9.36 7.2-16.848 3.312-7.632 5.472-12.672 2.16-5.184 2.736-6.48 0.576 1.296 2.736 6.48 2.304 5.04 5.472 12.672 3.312 7.488 7.2 16.848 4.032 9.216 8.208 18.864t8.064 19.008q4.032 9.216 7.2 16.848 3.312 7.488 5.472 12.672 2.16 5.04 2.736 6.336h-17.424zm-41.616-42.48h23.904l-10.368-25.056q-0.144-0.144-0.72-1.872-0.576-1.872-0.864-3.312-0.288 1.44-0.864 3.312-0.576 1.728-0.576 1.872l-10.512 25.056z"/>
   <path id="path4721" d="m555.77 641.67v109.87q-1.008-1.296-4.464-4.752t-8.496-8.208q-5.04-4.896-11.232-10.656-6.048-5.904-12.384-11.808-6.336-6.048-12.384-11.808t-11.088-10.512q-4.896-4.896-8.352-8.208-3.312-3.456-4.32-4.752-0.144-0.288-1.152-1.44-1.008-1.296-1.728-2.304l0.432 4.608v64.944h-17.568v-109.73q1.008 1.296 4.464 4.752 3.456 3.312 8.496 8.064t11.088 10.368q6.192 5.616 12.528 11.52 6.336 5.76 12.384 11.52 6.048 5.616 11.088 10.368 5.04 4.608 8.352 7.92 3.456 3.312 4.464 4.608l2.736 4.032-0.432-4.896v-63.504h17.568z"/>
   <path id="path4723" d="m612.94 637.06q0.72 1.008 3.168 4.608 2.448 3.456 6.048 8.64 3.744 5.04 8.208 11.232 4.608 6.192 9.216 12.672 4.752 6.336 9.216 12.528 4.464 6.048 8.064 11.088t6.048 8.496q2.592 3.312 3.168 4.176 0.288-0.432 2.592-3.6 2.304-3.312 5.76-8.208 3.6-4.896 8.064-11.088 4.464-6.336 9.216-12.816t9.216-12.816q4.608-6.336 8.352-11.52 3.888-5.184 6.48-8.784t3.312-4.608v109.58h-18.864v-53.568q0-1.152 0.288-2.448t0.288-1.584l-34.704 49.968q-0.72-0.864-3.6-4.752-2.736-3.888-6.624-9.216t-8.208-11.376q-4.32-6.192-8.208-11.376-3.744-5.328-6.48-8.928-2.592-3.744-2.88-4.32 0 0.288 0.288 1.584t0.288 2.448v53.568h-17.712v-109.58z"/>
   <path id="path4725" d="m738.55 737.72q0-3.744 2.736-6.336 2.88-2.592 6.192-2.592 3.024 0 5.76 2.592 2.88 2.592 2.88 6.336 0 4.176-2.88 6.624-2.736 2.304-5.76 2.304-3.312 0-6.192-2.304-2.736-2.448-2.736-6.624z"/>
   <path id="path4727" d="m826.25 693.94h14.112q5.472 0 9.072-1.872t5.76-4.608q2.16-2.88 3.024-5.904 0.864-3.168 0.864-5.616 0-2.304-0.864-5.328-0.72-3.168-2.88-5.904-2.016-2.736-5.616-4.608t-9.216-1.872h-14.256v35.712zm-17.568 52.704v-104.98h29.664q8.64 0 15.696 2.304 7.2 2.304 12.096 6.624 5.04 4.32 7.776 10.656t2.736 14.256q0 6.336-1.872 12.672-1.872 6.192-6.192 11.232-4.176 4.896-10.944 8.064-6.768 3.024-16.704 3.024h-14.688v36.144h-17.568z"/>
   <path id="path4729" d="m885.87 694.38q0-10.944 4.176-20.736 4.32-9.792 11.52-17.136 7.344-7.344 16.992-11.664 9.792-4.32 20.88-4.32 10.944 0 20.736 4.32t17.136 11.664 11.52 17.136q4.32 9.792 4.32 20.736 0 11.088-4.32 20.88-4.176 9.648-11.52 16.992-7.344 7.2-17.136 11.376t-20.736 4.176q-11.088 0-20.88-4.176-9.648-4.176-16.992-11.376-7.2-7.344-11.52-16.992-4.176-9.792-4.176-20.88zm17.712 0q0 7.632 2.736 14.4 2.88 6.624 7.776 11.664 5.04 4.896 11.52 7.776 6.624 2.88 14.256 2.88 7.344 0 13.824-2.88 6.624-2.88 11.376-7.776 4.896-5.04 7.632-11.664 2.88-6.768 2.88-14.4t-2.88-14.256q-2.88-6.768-7.776-11.808t-11.52-7.92q-6.48-2.88-13.968-2.88t-14.112 2.88q-6.48 2.88-11.376 7.92-4.752 5.04-7.632 11.808-2.736 6.624-2.736 14.256z"/>
   <path id="path4731" d="m1010.3 746.65v-104.98h69.696v15.984h-52.128v28.224h46.368v16.416h-46.368v27.936h54.144v16.416h-71.712z"/>
  </g>
  <path id="path4742-0-8" d="m605.19 432.82c-22.274 0.047-36.702 0.40069-36.702 0.40069l0.0226 0.0412h-0.0293v163.89h28.292v-55.097h24.075v55.577h28.292v-34.656l0.0294 0.0412-0.0294-13.448h29.73c24.616 0 42.838-4.6111 54.666-13.833 11.988-9.222 17.984-23.76 17.984-43.611s-5.8338-34.544-17.502-44.078c-11.668-9.5346-30.211-14.301-55.625-14.301h-5.3138c-25.494-0.7559-49.43-0.96123-67.889-0.92219zm-8.4161 25.529h25.814l23.665 0.69006c8.1013 0.90033 14.178 2.6883 18.133 5.406 5.9142 3.9076 8.8714 11.253 8.8714 22.038 0 10.629-2.8765 18.366-8.6308 23.211-4.1997 3.5364-11.158 5.7668-20.806 6.7226l-14.26 0.54695h-32.787v-58.614zm100.51 2.137c5.8912 1.1712 10.717 2.9552 14.432 5.3774 7.1929 4.6892 10.79 12.739 10.79 24.149 0 11.254-2.8798 19.85-8.6341 25.79-4.6591 4.8164-12.861 7.5963-24.504 8.4016 8.5956-9.0122 12.897-21.585 12.897-37.721 0-10.195-1.6688-18.854-4.982-25.997zm-44.809 92.052 0.0325 15.07 21.466 29.539h35.964l-32.816-44.539c-1.031 0.006-2.0204 0.022-3.0569 0.0254-10.869 0.0356-20.091-0.0781-21.59-0.0954z"/>
 </g>
</svg>
