<?xml version="1.0" encoding="UTF-8" standalone="no"?>
<!-- Created with Inkscape (http://www.inkscape.org/) -->

<svg
   xmlns:dc="http://purl.org/dc/elements/1.1/"
   xmlns:cc="http://creativecommons.org/ns#"
   xmlns:rdf="http://www.w3.org/1999/02/22-rdf-syntax-ns#"
   xmlns:svg="http://www.w3.org/2000/svg"
   xmlns="http://www.w3.org/2000/svg"
   xmlns:sodipodi="http://sodipodi.sourceforge.net/DTD/sodipodi-0.dtd"
   xmlns:inkscape="http://www.inkscape.org/namespaces/inkscape"
   width="290.15973mm"
   height="62.783417mm"
   viewBox="0 0 1028.125 222.46092"
   id="svg2"
   version="1.1"
   inkscape:version="0.91 r13725"
   sodipodi:docname="logo.svg">
  <defs
     id="defs4" />
  <sodipodi:namedview
     id="base"
     pagecolor="#ffffff"
     bordercolor="#666666"
     borderopacity="1.0"
     inkscape:pageopacity="0.0"
     inkscape:pageshadow="2"
     inkscape:zoom="0.35"
     inkscape:cx="-111.61747"
     inkscape:cy="112.55924"
     inkscape:document-units="px"
     inkscape:current-layer="flowRoot4136"
     showgrid="false"
     showborder="true"
     inkscape:showpageshadow="false"
     fit-margin-top="0"
     fit-margin-left="0"
     fit-margin-right="0"
     fit-margin-bottom="0"
     inkscape:window-width="1920"
     inkscape:window-height="1017"
     inkscape:window-x="-8"
     inkscape:window-y="-8"
     inkscape:window-maximized="1" />
  <metadata
     id="metadata7">
    <rdf:RDF>
      <cc:Work
         rdf:about="">
        <dc:format>image/svg+xml</dc:format>
        <dc:type
           rdf:resource="http://purl.org/dc/dcmitype/StillImage" />
        <dc:title></dc:title>
      </cc:Work>
    </rdf:RDF>
  </metadata>
  <g
     inkscape:label="Layer 1"
     inkscape:groupmode="layer"
     id="layer1"
     transform="translate(-29.47461,-422.46051)">
    <g
       transform="translate(0,343.70079)"
       style="font-style:normal;font-weight:normal;font-size:40px;line-height:125%;font-family:sans-serif;letter-spacing:0px;word-spacing:0px;fill:#000000;fill-opacity:1;stroke:none;stroke-width:1px;stroke-linecap:butt;stroke-linejoin:miter;stroke-opacity:1"
       id="flowRoot4136">
      <path
         d="m 70.099603,160.20502 q 1.367188,8.78906 3.125,16.21094 1.953125,7.22656 2.929687,12.69531 0.976562,5.46875 0.585937,8.78906 -0.390624,3.32031 -3.906249,4.10156 -0.390625,1.17188 -1.5625,-1.36719 -1.171875,-2.53906 -2.734374,-7.61718 -1.5625,-5.27344 -3.320312,-12.5 -1.757813,-7.22656 -3.515625,-15.23437 -1.5625,-8.20313 -2.929687,-16.79688 -1.367187,-8.59374 -2.343749,-16.40624 -0.78125,-7.8125 -0.78125,-14.25781 0,-6.44531 1.171875,-10.74219 2.343749,-1.75781 4.101561,-0.78125 1.953125,0.78125 2.929687,2.73438 1.171875,1.95312 1.5625,4.49218 0,2.53906 -0.390625,4.6875 0.195313,0.78125 0.585938,2.92969 0.585937,2.14844 1.171874,4.6875 0.585938,2.34375 1.171875,4.49218 0.585938,2.14844 0.976563,2.92969 2.734374,-0.39062 8.007811,-0.97656 5.468749,-0.78125 11.718748,-1.95313 6.249999,-1.36718 12.695312,-3.12499 6.64062,-1.75782 11.91406,-4.10157 5.27344,-2.34375 8.59375,-5.46875 3.51562,-3.125 3.51562,-7.03124 0,-0.39063 -0.19531,-0.97657 l 0,-0.58593 q -5.46875,-6.25 -11.13281,-10.156253 -5.66406,-3.906249 -12.10937,-5.664062 -6.250003,-1.953124 -13.281252,-2.539062 -7.031249,-0.585937 -15.03906,-0.585937 -5.859374,0 -12.304686,0.195312 -6.445311,0 -11.91406,1.5625 -5.273437,1.5625 -8.789062,5.664062 -3.515624,4.10156 -3.515624,11.91406 -1.757812,0 -3.125,-1.17187 -1.367187,-1.17188 -2.343749,-2.73438 -0.976563,-1.75781 -1.5625,-3.51562 -0.585937,-1.95313 -0.585937,-3.320315 0,-2.734375 1.171874,-5.078125 1.171875,-2.539062 3.125,-4.492186 1.953125,-1.953125 4.296874,-3.515625 2.34375,-1.757812 4.6875,-2.929687 6.249999,-1.171875 10.937498,-1.953125 4.882812,-0.781249 9.179686,-1.171874 4.296874,-0.585938 8.593749,-0.585938 4.492187,-0.195312 9.960936,-0.195312 5.468749,0 11.523435,0.976562 6.054687,0.78125 12.304688,2.539062 6.25,1.757812 11.71875,4.687499 5.66406,2.734375 9.96093,6.835937 4.49219,3.906249 7.03125,9.179687 2.53906,5.07812 2.53906,11.52343 0,5.66407 -3.51562,9.96094 -3.51563,4.29688 -9.375,7.42187 -5.85937,3.125 -13.08594,5.27344 -7.03124,2.14844 -14.257806,3.90625 -7.031248,1.5625 -13.281247,2.73438 -6.25,1.5625 -10.156249,2.73437 9.765624,13.47656 19.335935,22.85156 9.570307,9.375 17.968747,15.82031 8.39844,6.44531 15.23437,10.54687 6.83594,3.90625 11.13281,6.64063 4.29688,2.73437 5.46875,4.29687 1.17188,1.5625 -1.75781,3.51563 -2.14844,2.73437 -7.03125,1.36718 -4.88281,-1.36718 -11.32812,-5.46875 -6.25,-3.90625 -13.47656,-9.76562 -7.22656,-6.05469 -14.257813,-12.5 -7.031249,-6.44531 -13.47656,-12.69531 -6.249999,-6.25 -10.546874,-10.9375 z"
         style="font-style:normal;font-variant:normal;font-weight:normal;font-stretch:normal;font-size:199.99996948px;font-family:'Indie Flower';-inkscape-font-specification:'Indie Flower'"
         id="path4145" />
      <path
         d="m 156.42772,264.50188 q 0,-1.36719 0,-2.73437 0,-1.17188 0.39062,-2.14844 0.39063,-0.78125 1.17188,-1.36719 1.17187,-0.39062 2.73437,-0.39062 2.92969,3.32031 7.42188,8.39843 4.6875,5.27344 10.54687,10.15625 5.85937,4.88281 12.30468,8.59375 6.44532,3.71094 13.08594,3.71094 5.46875,-0.19531 9.375,-2.92969 3.90625,-2.53906 6.64062,-6.83594 2.73438,-4.29687 4.49219,-9.76562 1.75781,-5.46875 2.73437,-11.13281 1.17188,-5.66406 1.5625,-10.9375 0.58594,-5.27343 1.17188,-9.17968 0.39062,-1.95313 0.78125,-6.64063 0.58594,-4.49218 0.97656,-10.15625 0.58594,-5.46875 0.78125,-11.52343 0.39063,-6.05469 0,-10.9375 -0.39062,-5.07812 -1.5625,-8.20312 -1.17187,-3.32032 -3.51562,-3.32032 -3.32032,0 -7.03125,1.95313 -3.71094,1.95312 -7.8125,4.49219 -3.90625,2.34374 -8.00781,4.29687 -4.10156,1.95312 -8.00781,1.95312 -7.42188,0 -13.67188,-2.92968 -6.05468,-3.125 -11.13281,-8.00781 -5.07812,-4.88282 -8.98437,-11.32813 -3.90625,-6.64062 -6.64062,-13.67187 -2.53907,-7.03125 -3.90625,-14.0625 -1.17188,-7.03125 -1.17188,-13.28125 0,-1.36718 -0.39062,-4.49218 -0.19532,-3.125 0.19531,-6.44531 0.39062,-3.32032 1.75781,-5.85938 1.36719,-2.53906 4.29688,-2.53906 0.78125,0 1.17187,3.125 0.58594,3.125 1.17187,8.20312 0.78125,4.88281 1.75782,11.32813 1.17187,6.44531 2.92968,13.08593 1.75782,6.64063 4.29688,13.08594 2.53906,6.44531 6.25,11.52343 3.71093,4.88281 8.78906,8.00781 5.27344,3.125 11.91406,3.125 4.29687,0 8.98437,-1.75781 4.6875,-1.95312 8.78906,-4.88281 4.29688,-2.92969 7.8125,-6.64062 3.51563,-3.90625 5.46875,-7.61719 0,-0.78125 -0.19531,-3.71094 -0.19531,-2.92968 -0.39063,-6.64062 -0.19531,-3.90625 -0.39062,-8.39844 -0.19531,-4.49218 -0.39063,-8.39843 -0.19531,-4.10157 -0.39062,-7.03125 0,-2.92969 0,-3.71094 0.39062,-11.91406 1.75781,-14.45312 1.36719,-2.73438 3.32031,1.5625 1.95313,4.29687 4.10157,14.45312 2.14843,10.15625 3.90625,23.82812 1.95312,13.47656 2.92968,29.49218 1.17188,16.01563 0.97656,32.03125 -0.19531,16.21093 -2.14843,31.24999 -1.75781,15.03906 -5.85938,26.5625 -4.10156,11.71875 -10.74218,18.94531 -6.64063,7.22656 -16.40625,7.61719 -3.90625,0 -9.375,-1.5625 -5.27344,-1.36719 -10.74218,-3.90625 -5.46875,-2.53907 -10.9375,-6.05469 -5.27344,-3.51562 -9.57031,-7.61719 -4.10157,-4.10156 -6.83594,-8.59374 -2.53906,-4.49219 -2.53906,-8.98438 z"
         style="font-style:normal;font-variant:normal;font-weight:normal;font-stretch:normal;font-size:199.99996948px;font-family:'Indie Flower';-inkscape-font-specification:'Indie Flower'"
         id="path4147" />
      <path
         d="m 248.81052,170.55658 q 0.19531,-3.32031 1.95312,-7.61718 1.75781,-4.29688 5.46875,-8.39844 3.71094,-4.10156 9.375,-7.22656 5.66406,-3.32031 13.28125,-4.6875 7.8125,-1.36719 17.57812,-0.19531 9.96093,1.17187 22.07031,5.85937 0,-0.19531 0,-1.95312 l -0.19531,-1.75781 q 0,-5.07813 -2.92969,-10.35157 -2.92969,-5.27343 -7.61719,-9.37499 -4.49219,-4.29688 -9.76562,-6.83594 -5.27344,-2.73438 -10.15625,-2.73438 -1.95312,0 -3.51562,0.58594 -1.36719,0.58594 -2.73438,1.5625 -1.36719,0.78125 -2.73437,1.5625 -1.17188,0.58594 -2.92969,0.58594 -0.39063,0 -0.39063,-0.19531 -0.19531,-0.19532 -0.39062,-0.39063 -0.39063,-0.39062 -1.17188,-0.97656 -0.58593,-0.58594 -0.58593,-0.78125 0,-3.51563 1.17187,-6.05469 1.36719,-2.53906 3.51563,-4.10156 2.34375,-1.5625 5.07812,-2.34375 2.92969,-0.97656 6.05469,-0.97656 7.8125,0.78125 14.84374,4.88281 7.22657,3.90625 13.08594,9.96094 6.05469,6.05468 10.54687,14.06249 4.49219,7.8125 7.42188,16.40625 3.125,8.39844 4.10156,16.99219 1.17187,8.98437 0.19531,16.79687 -0.19531,0 -1.17187,0 -0.97657,-0.19531 -2.14844,-0.19531 -1.17187,-0.19532 -1.95312,-0.39063 l -0.97657,-0.19531 q -4.10156,-9.17969 -9.17968,-14.84375 -5.07813,-5.66406 -10.15625,-8.78906 -4.88281,-3.32031 -9.17969,-4.49219 -4.29687,-1.36718 -7.03125,-1.95312 -2.92968,0 -7.03125,0.39062 -3.90624,0.39063 -8.20312,1.36719 -4.29687,0.97656 -8.78906,2.73438 -4.29687,1.5625 -7.8125,3.90625 -3.32031,2.34374 -5.46875,5.66406 -1.95312,3.125 -1.95312,7.42187 0,4.6875 3.71093,8.00781 3.71094,3.125 8.98438,5.27344 5.27343,1.95312 10.74218,2.73437 5.46875,0.78125 8.78906,0.78125 5.46875,0 10.74219,-0.58593 5.27344,-0.58594 10.35156,-1.36719 5.27344,-0.78125 10.35156,-1.36719 5.07813,-0.58594 10.15625,-0.58594 0.39063,0 1.36719,0 0.97656,0 1.95312,0.19532 1.17188,0 1.95313,0 0.97656,0 1.36718,0 1.5625,0.58593 1.75782,1.75781 0.19531,1.17187 0.19531,2.34375 0,1.17187 -2.53906,2.53906 -2.34375,1.36719 -6.25,2.73437 -3.90625,1.36719 -8.78906,2.92969 -4.6875,1.36719 -9.17969,2.34375 -4.29687,0.97656 -8.20312,1.75781 -3.71094,0.58594 -5.27344,0.58594 -8.20312,0 -17.38281,-1.36719 -9.17969,-1.36718 -16.79687,-4.88281 -7.61719,-3.71093 -12.69531,-10.15625 -4.88281,-6.44531 -4.88281,-16.60156 z"
         style="font-style:normal;font-variant:normal;font-weight:normal;font-stretch:normal;font-size:199.99996948px;font-family:'Indie Flower';-inkscape-font-specification:'Indie Flower'"
         id="path4149" />
      <path
         d="m 351.93548,127.39253 q 0,-1.75781 1.17188,-2.14844 1.36719,-0.58594 2.92969,-0.58594 1.17187,0 1.5625,0.58594 0.58593,0.58594 0.78125,1.36719 0.19531,0.78125 0.58593,1.5625 0.39063,0.58594 1.36719,0.58594 2.73438,0 6.64063,-2.14844 3.90624,-2.14844 8.39843,-4.6875 4.6875,-2.53906 9.76562,-4.6875 5.27344,-2.14844 10.35157,-2.14844 6.64062,0 12.10937,3.51563 5.66406,3.32031 9.96093,8.98437 4.49219,5.66406 7.61719,12.69531 3.125,7.03125 5.27344,14.45312 2.14844,7.22656 3.125,14.25781 0.97656,6.83594 0.97656,11.91406 0,1.75782 -0.39063,5.27344 -0.19531,3.51563 -0.97656,7.03125 -0.58593,3.51562 -2.14843,6.25 -1.5625,2.53906 -3.90625,2.53906 -0.39063,0 -1.36719,0 -0.97656,-0.19531 -1.95313,-0.39062 -0.97656,-0.39063 -1.75781,-0.78125 -0.58594,-0.39063 -0.58594,-1.17188 1.75782,-15.03906 0,-28.12499 -1.75781,-13.28125 -5.66406,-23.24219 -3.90625,-9.96093 -9.57031,-15.82031 -5.66406,-5.85937 -12.10937,-5.85937 -6.05469,0 -11.32812,1.95312 -5.27344,1.95313 -9.17969,5.66406 -3.90625,3.71094 -6.25,8.98438 -2.14844,5.27343 -2.14844,11.52343 0,6.25 1.17188,12.5 1.17187,6.05469 2.53906,12.30469 1.5625,6.05468 2.73437,12.30468 1.17188,6.25 1.17188,12.5 -5.46875,0 -9.17969,-4.49219 -3.71093,-4.49218 -6.05468,-11.52343 -2.14844,-7.03125 -3.51563,-15.82031 -1.17187,-8.78906 -1.75781,-17.1875 -0.39063,-8.59375 -0.39063,-16.01562 0,-7.61719 0,-11.91406 z"
         style="font-style:normal;font-variant:normal;font-weight:normal;font-stretch:normal;font-size:199.99996948px;font-family:'Indie Flower';-inkscape-font-specification:'Indie Flower'"
         id="path4151" />
      <path
         d="m 601.74016,199.65814 q -0.39063,-1.95312 -0.78125,-6.25 -0.39062,-4.29687 -0.97656,-9.57031 -0.58594,-5.27344 -1.17188,-11.13281 -0.58593,-6.05469 -1.17187,-11.32812 -0.58594,-5.46875 -1.17188,-9.57031 -0.39062,-4.29688 -0.58593,-6.44531 -0.39063,-1.95313 -0.39063,-4.88282 0.19531,-2.92968 -0.39062,-6.05468 -0.39063,-3.125 -1.5625,-5.85938 -0.97657,-2.73437 -3.125,-3.90625 -7.03125,3.90625 -14.0625,5.85938 -7.03125,1.95312 -14.84375,1.95312 -11.52343,0 -23.04687,-14.0625 -0.78125,0 -1.17188,1.17188 -0.19531,1.17187 -0.39062,2.73437 -0.19531,1.5625 -0.19531,3.32032 0.19531,1.75781 0.19531,2.92968 l -0.19531,65.23437 q 0,1.17187 -0.78125,2.14843 -0.58594,0.78125 -1.5625,1.17188 -0.97656,0.39062 -2.14844,0.78125 -0.97656,0.19531 -1.95312,0.19531 -3.125,0 -4.29688,-2.53906 -0.97656,-2.73437 -1.36719,-5.27344 l 0,-28.12499 q 0,-12.89063 0.97657,-25.39062 1.17187,-12.5 1.17187,-25.39062 0,-3.90625 -1.5625,-7.03125 -1.5625,-3.125 -3.32031,-6.05469 -1.75781,-3.125 -3.32031,-6.054687 -1.36719,-3.124999 -1.36719,-6.835936 0,-4.101562 3.90625,-4.101562 4.88281,0 8.20312,2.929687 3.32032,2.929687 5.85938,7.031249 2.53906,4.101562 4.88281,9.179689 2.34375,5.07812 5.46875,9.17968 3.32031,4.10156 7.42187,7.03125 4.29688,2.92969 10.54688,2.92969 7.81249,0.39062 12.89062,-2.34375 5.27344,-2.92969 8.39843,-7.22656 3.32032,-4.49219 5.27344,-9.57031 2.14844,-5.27344 3.71094,-9.570314 1.5625,-4.492187 3.32031,-7.226562 1.95313,-2.734374 4.6875,-2.148437 2.14844,-0.390625 3.125,0.976563 1.17187,1.367187 1.75781,3.515624 0.58594,1.953125 0.58594,3.906249 0.19531,1.953125 0.19531,2.734375 0,7.421872 -1.17187,14.257812 -0.97657,6.64062 -0.97657,14.25781 0,9.96093 1.36719,19.72656 1.36719,9.76562 3.125,19.72656 1.95313,9.76562 3.32031,19.53124 1.5625,9.76563 1.5625,19.53125 0,1.5625 -0.39062,2.53906 -0.39063,0.97657 -1.17188,1.36719 -0.78125,0.39063 -1.75781,0.39063 -0.97656,0 -2.14844,0 -2.53906,0 -4.6875,-0.58594 -1.95312,-0.58594 -2.73437,-3.71094 z"
         style="font-style:normal;font-variant:normal;font-weight:normal;font-stretch:normal;font-size:199.99996948px;font-family:'Indie Flower';-inkscape-font-specification:'Indie Flower'"
         id="path4153" />
      <path
         d="m 629.27917,184.81439 q 0,-1.5625 1.17188,-4.6875 1.36719,-3.12499 3.125,-6.24999 1.75781,-3.32032 3.51562,-5.66407 1.95313,-2.34375 3.32031,-2.34375 3.90625,0 6.83594,2.14844 2.92969,1.95313 4.6875,5.07813 1.95312,3.125 2.92969,6.83593 0.97656,3.71094 0.97656,6.83594 0,2.34375 -1.36719,5.27344 -1.36719,2.92968 -3.51562,5.46874 -1.95313,2.53907 -4.49219,4.29688 -2.53906,1.75781 -5.07812,1.75781 -2.92969,0 -5.07813,-1.95312 -2.14843,-2.14844 -3.90625,-5.07813 -1.5625,-3.125 -2.34375,-6.25 -0.78125,-3.32031 -0.78125,-5.46875 z"
         style="font-style:normal;font-variant:normal;font-weight:normal;font-stretch:normal;font-size:199.99996948px;font-family:'Indie Flower';-inkscape-font-specification:'Indie Flower'"
         id="path4155" />
      <path
         d="m 796.66198,203.56439 q -2.73438,-4.88281 -4.6875,-12.5 -1.75781,-7.8125 -3.125,-16.21093 -1.17188,-8.39844 -1.95313,-15.82031 -0.78125,-7.42188 -1.5625,-11.71875 l 0,-33.59375 q 0,-2.14843 1.75782,-3.90624 1.75781,-1.95313 3.90625,-1.95313 0.39062,0 0.97656,0 0.58594,0 0.78125,0 0.78125,5.27344 1.17187,10.9375 0.39063,5.46875 0.58594,10.9375 0.39063,5.46875 1.36719,10.9375 0.78125,5.46874 2.53906,10.54687 3.125,0.78125 6.83594,1.17187 3.51562,0 8.20312,0.39063 5.07812,0 10.9375,-1.5625 6.05469,-1.75781 11.13281,-4.88281 5.07812,-3.125 8.39844,-7.61719 3.51562,-4.6875 3.51562,-10.35156 0,-6.25 -4.10156,-10.9375 -4.10156,-4.88281 -10.54687,-8.59375 -6.44532,-3.71093 -14.25782,-6.44531 -7.81249,-2.734373 -15.42968,-4.296873 -7.42187,-1.757812 -13.86719,-2.539062 -6.44531,-0.78125 -9.96093,-0.78125 -1.17188,0 -4.29688,-0.195312 -3.125,-0.195313 -7.03124,0 -3.71094,0 -7.22657,0.390625 -3.51562,0.390625 -5.46875,1.562499 -1.75781,0.976563 -3.32031,3.515623 -1.36718,2.53906 -2.73437,5.27344 -1.36719,2.53906 -2.92969,4.49219 -1.36719,1.95312 -3.125,1.95312 l -0.39062,0 q -0.19532,0 -0.58594,-0.19531 -0.39063,-0.19531 -0.58594,-0.58594 -0.19531,-0.39062 -0.58594,-1.95312 -0.19531,-1.5625 -0.39062,-4.49219 -0.19531,-2.92969 -0.19531,-8.007813 0,-2.148437 1.95312,-3.906249 2.14844,-1.953125 5.46875,-3.320312 3.51563,-1.367187 7.42187,-2.34375 3.90625,-1.171874 7.42188,-1.757812 3.71094,-0.78125 6.44531,-1.171875 2.92969,-0.390625 3.90625,-0.390625 6.64062,0 15.42968,0.78125 8.98438,0.78125 18.35938,2.929687 9.57031,1.953125 18.74999,5.46875 9.375,3.320312 16.60156,8.398439 7.22657,4.88281 11.91406,11.91406 4.49219,6.83593 4.49219,16.21093 0.97656,6.64063 -2.34375,12.30469 -3.32031,5.46875 -9.17968,9.96093 -5.66407,4.29688 -12.89063,7.61719 -7.22656,3.125 -14.0625,5.07812 -6.83593,1.75782 -12.30468,2.34375 -5.46875,0.39063 -7.61719,-0.58593 l 0,1.75781 q 0,6.83594 1.17188,13.47656 1.17187,6.64062 1.17187,13.47656 0,0.78125 -0.19531,2.53906 -0.19531,1.5625 -0.97656,3.125 -0.58594,1.5625 -1.75781,2.53906 -0.97657,0.97657 -2.92969,0.58594 z"
         style="font-style:normal;font-variant:normal;font-weight:normal;font-stretch:normal;font-size:199.99996948px;font-family:'Indie Flower';-inkscape-font-specification:'Indie Flower'"
         id="path4157" />
      <path
         d="m 865.99792,163.72065 q 0,-10.74219 4.6875,-18.75 4.6875,-8.00781 12.30469,-13.47656 7.61719,-5.46875 16.99218,-8.00781 9.57032,-2.73438 19.14063,-2.73438 5.07812,0 9.37499,1.95313 4.49219,1.75781 8.39844,5.07812 4.10156,3.125 7.22656,7.42188 3.125,4.10156 5.27344,8.59375 2.34375,4.49218 3.51562,9.17968 1.17188,4.49219 1.17188,8.78906 0,9.96094 -3.90625,17.77344 -3.90625,7.8125 -10.54687,13.28125 -6.64063,5.27343 -15.03906,8.20312 -8.39844,2.73437 -17.1875,2.73437 -8.98438,0 -16.60156,-2.73437 -7.42188,-2.92969 -13.08594,-8.00781 -5.46875,-5.07813 -8.59375,-12.5 -3.125,-7.61719 -3.125,-16.79687 z m 9.57032,-1.5625 q 0,6.05468 2.14843,11.71875 2.34375,5.46874 6.25,9.57031 4.10156,4.10156 9.57031,6.64062 5.46875,2.34375 11.71875,2.34375 3.32031,0.39063 8.00781,-0.97656 4.88281,-1.5625 9.57031,-4.29688 4.88281,-2.92968 9.17969,-6.83593 4.49219,-4.10156 7.42187,-8.78906 2.92969,-4.88282 3.51563,-9.96094 0.78125,-5.27344 -1.75781,-10.35156 -2.34375,-5.27344 -8.78907,-9.96094 -6.44531,-4.88281 -17.77343,-8.98437 -6.44531,0 -13.47656,1.95312 -6.83594,1.75782 -12.5,5.46875 -5.66406,3.71094 -9.375,9.375 -3.71093,5.66406 -3.71093,13.08594 z"
         style="font-style:normal;font-variant:normal;font-weight:normal;font-stretch:normal;font-size:199.99996948px;font-family:'Indie Flower';-inkscape-font-specification:'Indie Flower'"
         id="path4159" />
      <path
         d="m 963.65417,151.22065 q 0,-10.15625 2.92969,-19.33594 3.125,-9.37499 8.78906,-16.40624 5.85938,-7.03125 14.0625,-11.13281 8.39844,-4.29688 19.33598,-4.29688 6.4453,0.78125 11.1328,3.51563 4.8828,2.73437 7.8125,6.83593 3.125,3.90625 4.4922,9.17969 1.1718,5.07812 1.1718,10.9375 0,7.03125 -4.1015,12.69531 -4.1016,5.66406 -10.3516,9.57031 -6.25,3.71094 -13.4766,5.85937 -7.22652,1.95313 -13.47652,1.95313 -2.34375,0 -4.88281,0 -2.34375,0 -4.29687,-0.78125 -1.95313,-0.78125 -3.125,-2.34375 -1.17188,-1.5625 -1.17188,-4.6875 0,-0.97656 0.19531,-1.5625 0.39063,-0.78125 1.75782,-0.97656 1.36718,-0.39063 4.10156,-0.19532 2.73437,0.39063 7.42187,1.17188 2.73438,0 7.8125,-1.75781 5.27342,-1.95313 10.54692,-4.88281 5.4687,-2.92969 9.375,-6.64063 3.9062,-3.90625 3.9062,-7.61719 0,-3.90624 -1.3672,-7.61718 -1.1719,-3.90625 -3.7109,-6.83594 -2.5391,-2.92969 -6.0547,-4.6875 -3.3203,-1.75781 -7.6172,-1.36718 -6.83593,0.58593 -12.49999,3.71093 -5.46875,3.125 -9.375,8.20313 -3.90625,4.88281 -6.05469,10.93749 -2.14843,6.05469 -2.14843,12.69532 0,5.07812 0.19531,10.15624 0.19531,5.07813 1.36718,9.96094 1.36719,4.88281 4.10157,9.375 2.92968,4.49218 8.20312,8.00781 5.46875,3.32031 13.67183,5.66406 8.2032,2.14844 20.3125,2.73438 l 34.961,-2.34375 q -3.125,4.29687 -8.0078,7.03124 -4.6875,2.73438 -10.1563,4.49219 -5.2734,1.5625 -10.5469,2.34375 -5.2734,0.78125 -9.9609,0.78125 -11.3281,0 -21.28906,-3.71094 -9.96093,-3.71093 -17.57812,-10.35156 -7.61718,-6.83593 -12.10937,-16.40624 -4.29688,-9.76563 -4.29688,-21.875 z"
         style="font-style:normal;font-variant:normal;font-weight:normal;font-stretch:normal;font-size:199.99996948px;font-family:'Indie Flower';-inkscape-font-specification:'Indie Flower'"
         id="path4161" />
    </g>
  </g>
</svg>
