<?xml version="1.0" encoding="UTF-8" standalone="no"?>
<!-- Created with Inkscape (http://www.inkscape.org/) -->

<svg
   xmlns:dc="http://purl.org/dc/elements/1.1/"
   xmlns:cc="http://creativecommons.org/ns#"
   xmlns:rdf="http://www.w3.org/1999/02/22-rdf-syntax-ns#"
   xmlns:svg="http://www.w3.org/2000/svg"
   xmlns="http://www.w3.org/2000/svg"
   xmlns:sodipodi="http://sodipodi.sourceforge.net/DTD/sodipodi-0.dtd"
   xmlns:inkscape="http://www.inkscape.org/namespaces/inkscape"
   width="249.5531mm"
   height="89.952911mm"
   viewBox="0 0 884.24326 318.73079"
   id="svg4147"
   version="1.1"
   inkscape:version="0.91 r13725"
   sodipodi:docname="logo-2.svg">
  <defs
     id="defs4149" />
  <sodipodi:namedview
     id="base"
     pagecolor="#ffffff"
     bordercolor="#666666"
     borderopacity="1.0"
     inkscape:pageopacity="0.0"
     inkscape:pageshadow="2"
     inkscape:zoom="0.35"
     inkscape:cx="-252.60939"
     inkscape:cy="219.18164"
     inkscape:document-units="px"
     inkscape:current-layer="text4695"
     showgrid="false"
     inkscape:showpageshadow="false"
     width="350mm"
     fit-margin-top="0"
     fit-margin-left="0"
     fit-margin-right="0"
     fit-margin-bottom="0"
     inkscape:window-width="1441"
     inkscape:window-height="768"
     inkscape:window-x="335"
     inkscape:window-y="92"
     inkscape:window-maximized="0" />
  <metadata
     id="metadata4152">
    <rdf:RDF>
      <cc:Work
         rdf:about="">
        <dc:format>image/svg+xml</dc:format>
        <dc:type
           rdf:resource="http://purl.org/dc/dcmitype/StillImage" />
        <dc:title></dc:title>
      </cc:Work>
    </rdf:RDF>
  </metadata>
  <g
     inkscape:label="Layer 1"
     inkscape:groupmode="layer"
     id="layer1"
     transform="translate(-197.81028,-432.81311)">
    <g
       style="font-style:normal;font-weight:normal;font-size:40px;line-height:125%;font-family:sans-serif;letter-spacing:0px;word-spacing:0px;fill:#000000;fill-opacity:1;stroke:none;stroke-width:1px;stroke-linecap:butt;stroke-linejoin:miter;stroke-opacity:1"
       id="text4695">
      <path
         d="m 197.81028,746.64789 0,-104.976 29.664,0 q 8.64,0 15.696,2.304 7.2,2.304 12.096,6.624 5.04,4.32 7.776,10.656 2.736,6.336 2.736,14.256 0,4.32 -0.864,8.64 -0.864,4.32 -2.736,8.352 -1.872,4.032 -4.896,7.488 -3.024,3.312 -7.2,5.76 3.168,5.04 6.192,9.936 3.024,4.752 6.048,9.648 3.168,4.896 6.48,10.08 3.312,5.184 7.2,11.232 l -21.168,0 q -6.48,-10.08 -12.24,-19.008 -5.76,-9.072 -11.088,-17.136 l -1.44,0 -14.688,0 0,36.144 -17.568,0 z m 17.568,-52.704 14.112,0 q 5.472,0 9.072,-1.872 3.6,-1.872 5.76,-4.464 2.16,-2.736 3.024,-5.76 0.864,-3.168 0.864,-5.76 0,-2.448 -0.864,-5.472 -0.72,-3.168 -2.88,-5.904 -2.016,-2.736 -5.616,-4.608 -3.6,-1.872 -9.216,-1.872 l -14.256,0 0,35.712 z"
         style="font-style:normal;font-variant:normal;font-weight:bold;font-stretch:normal;font-size:144px;font-family:'Josefin Sans';-inkscape-font-specification:'Josefin Sans Bold'"
         id="path4715" />
      <path
         d="m 328.23828,712.66389 0,33.984 -17.712,0 0,-33.984 q -0.72,-1.008 -3.6,-6.336 -2.88,-5.472 -7.056,-12.96 -4.176,-7.632 -8.784,-16.128 -4.608,-8.64 -8.784,-16.128 -4.176,-7.632 -7.056,-12.96 -2.88,-5.472 -3.6,-6.48 l 20.016,0 q 0.576,1.008 2.16,4.176 1.728,3.024 4.032,7.488 2.304,4.32 5.04,9.648 2.736,5.184 5.472,10.512 2.736,5.184 5.184,10.08 2.448,4.752 4.32,8.352 l 1.584,4.896 q 0.576,-1.152 1.008,-2.448 0.432,-1.44 0.864,-2.448 1.872,-3.6 4.32,-8.352 2.448,-4.896 5.04,-10.08 2.736,-5.328 5.328,-10.512 2.736,-5.328 4.896,-9.648 2.304,-4.464 3.888,-7.488 1.584,-3.168 2.16,-4.176 l 20.016,0 -38.736,70.992 z"
         style="font-style:normal;font-variant:normal;font-weight:bold;font-stretch:normal;font-size:144px;font-family:'Josefin Sans';-inkscape-font-specification:'Josefin Sans Bold'"
         id="path4717" />
      <path
         d="m 433.60353,746.64789 q -0.432,-1.008 -1.584,-3.6 -1.008,-2.592 -2.592,-6.336 -1.584,-3.744 -3.456,-8.208 -1.872,-4.608 -3.888,-9.504 l -36.144,0 -11.52,27.648 -17.424,0 q 0.576,-1.296 2.736,-6.336 2.16,-5.184 5.328,-12.672 3.312,-7.632 7.2,-16.848 4.032,-9.36 8.208,-19.008 4.176,-9.648 8.064,-18.864 4.032,-9.36 7.2,-16.848 3.312,-7.632 5.472,-12.672 2.16,-5.184 2.736,-6.48 0.576,1.296 2.736,6.48 2.304,5.04 5.472,12.672 3.312,7.488 7.2,16.848 4.032,9.216 8.208,18.864 4.176,9.648 8.064,19.008 4.032,9.216 7.2,16.848 3.312,7.488 5.472,12.672 2.16,5.04 2.736,6.336 l -17.424,0 z m -41.616,-42.48 23.904,0 -10.368,-25.056 q -0.144,-0.144 -0.72,-1.872 -0.576,-1.872 -0.864,-3.312 -0.288,1.44 -0.864,3.312 -0.576,1.728 -0.576,1.872 l -10.512,25.056 z"
         style="font-style:normal;font-variant:normal;font-weight:bold;font-stretch:normal;font-size:144px;font-family:'Josefin Sans';-inkscape-font-specification:'Josefin Sans Bold'"
         id="path4719" />
      <path
         d="m 555.76503,641.67189 0,109.872 q -1.008,-1.296 -4.464,-4.752 -3.456,-3.456 -8.496,-8.208 -5.04,-4.896 -11.232,-10.656 -6.048,-5.904 -12.384,-11.808 -6.336,-6.048 -12.384,-11.808 -6.048,-5.76 -11.088,-10.512 -4.896,-4.896 -8.352,-8.208 -3.312,-3.456 -4.32,-4.752 -0.144,-0.288 -1.152,-1.44 -1.008,-1.296 -1.728,-2.304 l 0.432,4.608 0,64.944 -17.568,0 0,-109.728 q 1.008,1.296 4.464,4.752 3.456,3.312 8.496,8.064 5.04,4.752 11.088,10.368 6.192,5.616 12.528,11.52 6.336,5.76 12.384,11.52 6.048,5.616 11.088,10.368 5.04,4.608 8.352,7.92 3.456,3.312 4.464,4.608 l 2.736,4.032 -0.432,-4.896 0,-63.504 17.568,0 z"
         style="font-style:normal;font-variant:normal;font-weight:bold;font-stretch:normal;font-size:144px;font-family:'Josefin Sans';-inkscape-font-specification:'Josefin Sans Bold'"
         id="path4721" />
      <path
         d="m 612.93528,637.06389 q 0.72,1.008 3.168,4.608 2.448,3.456 6.048,8.64 3.744,5.04 8.208,11.232 4.608,6.192 9.216,12.672 4.752,6.336 9.216,12.528 4.464,6.048 8.064,11.088 3.6,5.04 6.048,8.496 2.592,3.312 3.168,4.176 0.288,-0.432 2.592,-3.6 2.304,-3.312 5.76,-8.208 3.6,-4.896 8.064,-11.088 4.464,-6.336 9.216,-12.816 4.752,-6.48 9.216,-12.816 4.608,-6.336 8.352,-11.52 3.888,-5.184 6.48,-8.784 2.592,-3.6 3.312,-4.608 l 0,109.584 -18.864,0 0,-53.568 q 0,-1.152 0.288,-2.448 0.288,-1.296 0.288,-1.584 l -34.704,49.968 q -0.72,-0.864 -3.6,-4.752 -2.736,-3.888 -6.624,-9.216 -3.888,-5.328 -8.208,-11.376 -4.32,-6.192 -8.208,-11.376 -3.744,-5.328 -6.48,-8.928 -2.592,-3.744 -2.88,-4.32 0,0.288 0.288,1.584 0.288,1.296 0.288,2.448 l 0,53.568 -17.712,0 0,-109.584 z"
         style="font-style:normal;font-variant:normal;font-weight:bold;font-stretch:normal;font-size:144px;font-family:'Josefin Sans';-inkscape-font-specification:'Josefin Sans Bold'"
         id="path4723" />
      <path
         d="m 738.54603,737.71989 q 0,-3.744 2.736,-6.336 2.88,-2.592 6.192,-2.592 3.024,0 5.76,2.592 2.88,2.592 2.88,6.336 0,4.176 -2.88,6.624 -2.736,2.304 -5.76,2.304 -3.312,0 -6.192,-2.304 -2.736,-2.448 -2.736,-6.624 z"
         style="font-style:normal;font-variant:normal;font-weight:bold;font-stretch:normal;font-size:144px;font-family:'Josefin Sans';-inkscape-font-specification:'Josefin Sans Bold'"
         id="path4725" />
      <path
         d="m 826.25328,693.94389 14.112,0 q 5.472,0 9.072,-1.872 3.6,-1.872 5.76,-4.608 2.16,-2.88 3.024,-5.904 0.864,-3.168 0.864,-5.616 0,-2.304 -0.864,-5.328 -0.72,-3.168 -2.88,-5.904 -2.016,-2.736 -5.616,-4.608 -3.6,-1.872 -9.216,-1.872 l -14.256,0 0,35.712 z m -17.568,52.704 0,-104.976 29.664,0 q 8.64,0 15.696,2.304 7.2,2.304 12.096,6.624 5.04,4.32 7.776,10.656 2.736,6.336 2.736,14.256 0,6.336 -1.872,12.672 -1.872,6.192 -6.192,11.232 -4.176,4.896 -10.944,8.064 -6.768,3.024 -16.704,3.024 l -14.688,0 0,36.144 -17.568,0 z"
         style="font-style:normal;font-variant:normal;font-weight:bold;font-stretch:normal;font-size:144px;font-family:'Josefin Sans';-inkscape-font-specification:'Josefin Sans Bold'"
         id="path4727" />
      <path
         d="m 885.86703,694.37589 q 0,-10.944 4.176,-20.736 4.32,-9.792 11.52,-17.136 7.344,-7.344 16.992,-11.664 9.792,-4.32 20.88,-4.32 10.944,0 20.736,4.32 9.792,4.32 17.136,11.664 7.344,7.344 11.52,17.136 4.32,9.792 4.32,20.736 0,11.088 -4.32,20.88 -4.176,9.648 -11.52,16.992 -7.344,7.2 -17.136,11.376 -9.792,4.176 -20.736,4.176 -11.088,0 -20.88,-4.176 -9.648,-4.176 -16.992,-11.376 -7.2,-7.344 -11.52,-16.992 -4.176,-9.792 -4.176,-20.88 z m 17.712,0 q 0,7.632 2.736,14.4 2.88,6.624 7.776,11.664 5.04,4.896 11.52,7.776 6.624,2.88 14.256,2.88 7.344,0 13.824,-2.88 6.624,-2.88 11.376,-7.776 4.896,-5.04 7.632,-11.664 2.88,-6.768 2.88,-14.4 0,-7.632 -2.88,-14.256 -2.88,-6.768 -7.776,-11.808 -4.896,-5.04 -11.52,-7.92 -6.48,-2.88 -13.968,-2.88 -7.488,0 -14.112,2.88 -6.48,2.88 -11.376,7.92 -4.752,5.04 -7.632,11.808 -2.736,6.624 -2.736,14.256 z"
         style="font-style:normal;font-variant:normal;font-weight:bold;font-stretch:normal;font-size:144px;font-family:'Josefin Sans';-inkscape-font-specification:'Josefin Sans Bold'"
         id="path4729" />
      <path
         d="m 1010.3415,746.64789 0,-104.976 69.696,0 0,15.984 -52.128,0 0,28.224 46.368,0 0,16.416 -46.368,0 0,27.936 54.144,0 0,16.416 -71.712,0 z"
         style="font-style:normal;font-variant:normal;font-weight:bold;font-stretch:normal;font-size:144px;font-family:'Josefin Sans';-inkscape-font-specification:'Josefin Sans Bold'"
         id="path4731" />
    </g>
    <path
       style="font-style:normal;font-variant:normal;font-weight:normal;font-stretch:normal;font-size:144px;line-height:125%;font-family:Montserrat;-inkscape-font-specification:Montserrat;letter-spacing:-74.59030151px;word-spacing:0px;display:inline;fill:#000000;fill-opacity:1;stroke:none;stroke-width:1px;stroke-linecap:butt;stroke-linejoin:miter;stroke-opacity:1"
       d="m 605.18924,432.81789 c -22.27371,0.047 -36.70205,0.40069 -36.70205,0.40069 l 0.0226,0.0412 -0.0293,0 0,163.88557 28.29242,0 0,-55.09703 24.07456,0 0,55.57723 28.29241,0 0,-34.65586 0.0294,0.0412 -0.0294,-13.44831 29.72981,0 c 24.61572,0 42.83779,-4.61114 54.66612,-13.8331 11.98819,-9.22195 17.98357,-23.76013 17.98357,-43.61079 0,-19.85068 -5.83375,-34.54371 -17.50225,-44.07828 -11.66849,-9.53457 -30.21053,-14.30058 -55.62549,-14.30058 l -5.31378,0 c -25.49378,-0.7559 -49.42984,-0.96123 -67.88881,-0.92219 z m -8.41614,25.5292 25.81439,0 23.6648,0.69006 c 8.10134,0.90033 14.17803,2.68828 18.13318,5.40602 5.91417,3.90764 8.87145,11.25257 8.87145,22.03758 0,10.62868 -2.87647,18.36556 -8.63081,23.21095 -4.19968,3.53638 -11.15766,5.76678 -20.80631,6.7226 l -14.26003,0.54695 -32.78667,0 0,-58.61416 z m 100.51287,2.13697 c 5.89119,1.17115 10.71675,2.95517 14.43236,5.37742 7.19292,4.68916 10.79017,12.73887 10.79017,24.1491 0,11.25388 -2.87975,19.85042 -8.63408,25.78996 -4.65914,4.81636 -12.86097,7.59632 -24.50381,8.40163 8.59557,-9.01216 12.8974,-21.58457 12.8974,-37.72142 0,-10.19503 -1.66879,-18.85388 -4.98204,-25.99669 z m -44.80931,92.0521 0.0325,15.07011 21.46645,29.5392 35.96391,0 -32.81595,-44.53937 c -1.031,0.006 -2.02045,0.022 -3.0569,0.0254 -10.86894,0.0356 -20.09094,-0.0781 -21.59,-0.0954 z"
       id="path4742-0-8"
       inkscape:connector-curvature="0" />
  </g>
</svg>
